<svg width="24" height="23" viewBox="0 0 24 23" fill="none" xmlns="http://www.w3.org/2000/svg">
    <mask id="path-1-inside-1_389_376" fill="white">
        <path fill-rule="evenodd" clip-rule="evenodd" d="M23.4266 12.2014C23.8646 11.8058 23.8666 11.119 23.4309 10.721L12.7352 0.950898C12.0944 0.365559 11.0632 0.81858 11.0607 1.68652L11.0491 5.74191H5.24365V16.9829H11.0168L11.0048 21.168C11.0023 22.0359 12.0309 22.4946 12.675 21.9128L23.4266 12.2014ZM4.24365 16.9829H3.24365V5.74191H4.24365V16.9829ZM2.24365 16.9829V5.74191H1.24365C0.691368 5.74191 0.243652 6.18963 0.243652 6.74191V15.9829C0.243652 16.5352 0.691368 16.9829 1.24365 16.9829H2.24365Z"/>
    </mask>
    <path d="M23.4309 10.721L24.7798 9.24435L24.7798 9.24435L23.4309 10.721ZM23.4266 12.2014L24.7672 13.6856V13.6856L23.4266 12.2014ZM12.7352 0.950898L14.0841 -0.525765V-0.525766L12.7352 0.950898ZM11.0607 1.68652L9.06072 1.68078V1.68078L11.0607 1.68652ZM11.0491 5.74191V7.74191H13.0433L13.0491 5.74765L11.0491 5.74191ZM5.24365 5.74191V3.74191H3.24365V5.74191H5.24365ZM5.24365 16.9829H3.24365V18.9829H5.24365V16.9829ZM11.0168 16.9829L13.0168 16.9886L13.0226 14.9829H11.0168V16.9829ZM11.0048 21.168L9.00481 21.1622V21.1622L11.0048 21.168ZM12.675 21.9128L14.0156 23.3969L14.0156 23.3969L12.675 21.9128ZM4.24365 16.9829V18.9829H6.24365V16.9829H4.24365ZM3.24365 16.9829H1.24365V18.9829H3.24365V16.9829ZM3.24365 5.74191V3.74191H1.24365V5.74191H3.24365ZM4.24365 5.74191H6.24365V3.74191H4.24365V5.74191ZM2.24365 5.74191H4.24365V3.74191H2.24365V5.74191ZM2.24365 16.9829V18.9829H4.24365V16.9829H2.24365ZM22.082 12.1977C21.6461 11.7994 21.6483 11.1126 22.0861 10.7172L24.7672 13.6856C26.0809 12.4991 26.0871 10.4386 24.7798 9.24435L22.082 12.1977ZM11.3863 2.42756L22.082 12.1977L24.7798 9.24435L14.0841 -0.525765L11.3863 2.42756ZM13.0607 1.69226C13.0582 2.55968 12.0275 3.01324 11.3863 2.42756L14.0841 -0.525766C12.1613 -2.28212 9.06819 -0.922518 9.06072 1.68078L13.0607 1.69226ZM13.0491 5.74765L13.0607 1.69226L9.06072 1.68078L9.04908 5.73617L13.0491 5.74765ZM5.24365 7.74191H11.0491V3.74191H5.24365V7.74191ZM3.24365 5.74191V16.9829H7.24365V5.74191H3.24365ZM11.0168 14.9829H5.24365V18.9829H11.0168V14.9829ZM13.0048 21.1737L13.0168 16.9886L9.01682 16.9772L9.00481 21.1622L13.0048 21.1737ZM11.3345 20.4286C11.9782 19.8471 13.0073 20.3052 13.0048 21.1737L9.00481 21.1622C8.99734 23.7666 12.0836 25.142 14.0156 23.3969L11.3345 20.4286ZM22.0861 10.7172L11.3345 20.4286L14.0156 23.3969L24.7672 13.6856L22.0861 10.7172ZM4.24365 14.9829H3.24365V18.9829H4.24365V14.9829ZM5.24365 16.9829V5.74191H1.24365V16.9829H5.24365ZM3.24365 7.74191H4.24365V3.74191H3.24365V7.74191ZM6.24365 16.9829V5.74191H2.24365V16.9829H6.24365ZM0.243652 5.74191V16.9829H4.24365V5.74191H0.243652ZM1.24365 7.74191H2.24365V3.74191H1.24365V7.74191ZM2.24365 6.74191C2.24365 7.2942 1.79594 7.74191 1.24365 7.74191V3.74191C-0.413202 3.74191 -1.75635 5.08506 -1.75635 6.74191H2.24365ZM2.24365 15.9829V6.74191H-1.75635V15.9829H2.24365ZM1.24365 14.9829C1.79594 14.9829 2.24365 15.4306 2.24365 15.9829H-1.75635C-1.75635 17.6398 -0.413201 18.9829 1.24365 18.9829V14.9829ZM2.24365 14.9829H1.24365V18.9829H2.24365V14.9829Z" fill="white" mask="url(#path-1-inside-1_389_376)"/>
</svg>
