<svg width="18" height="19" viewBox="0 0 18 19" fill="none" xmlns="http://www.w3.org/2000/svg">
    <path d="M16.3259 3.1267C17 4.08962 17 5.43008 17 8.111C17 10.7919 17 12.1324 16.3259 13.0953C16.034 13.5122 15.659 13.8701 15.2223 14.1486C14.3409 14.7107 13.1577 14.7817 11 14.7907V14.792L9.89443 16.9024C9.5259 17.6059 8.4741 17.6059 8.10557 16.9024L7 14.792V14.7907C4.8423 14.7817 3.65907 14.7107 2.77772 14.1486C2.34096 13.8701 1.96596 13.5122 1.67412 13.0953C1 12.1324 1 10.7919 1 8.111C1 5.43008 1 4.08962 1.67412 3.1267C1.96596 2.70984 2.34096 2.35193 2.77772 2.07339C3.78661 1.42999 5.19108 1.42999 8 1.42999H10C12.8089 1.42999 14.2134 1.42999 15.2223 2.07339C15.659 2.35193 16.034 2.70984 16.3259 3.1267Z" stroke="#FDFDFD" stroke-width="2" stroke-linecap="round" stroke-linejoin="round"/>
    <path d="M5 5.42999L12 5.42999" stroke="#FDFDFD" stroke-width="2" stroke-linecap="round" stroke-linejoin="round"/>
    <path d="M5 9.42999H8" stroke="#FDFDFD" stroke-width="2" stroke-linecap="round" stroke-linejoin="round"/>
</svg>
