<svg width="26" height="31" viewBox="0 0 26 31" fill="none" xmlns="http://www.w3.org/2000/svg">
    <path d="M13 7.42999H2C1.44772 7.42999 1 7.87771 1 8.42999V23.43C1 23.9823 1.44772 24.43 2 24.43H10M12.5 24.43H24C24.5523 24.43 25 23.9823 25 23.43V8.42999C25 7.87771 24.5523 7.42999 24 7.42999H16" stroke="#FDFDFD" stroke-width="2"/>
    <path d="M16.8064 3.42999L17.7928 3.59439L18.3561 0.214827L16.0633 2.76081L16.8064 3.42999ZM14.8064 15.43L13.82 15.2656L13.626 16.43H14.8064V15.43ZM6 15.43L5.2569 14.7608L3.75374 16.43H6L6 15.43ZM11.5466 15.43L12.533 15.5944L12.7271 14.43H11.5466V15.43ZM9.54666 27.43L8.56027 27.2656L7.99701 30.6452L10.2898 28.0992L9.54666 27.43ZM20.3531 15.43L21.0962 16.0992L22.5993 14.43H20.3531V15.43ZM15.82 3.26559L13.82 15.2656L15.7928 15.5944L17.7928 3.59439L15.82 3.26559ZM6.7431 16.0992L17.5495 4.09918L16.0633 2.76081L5.2569 14.7608L6.7431 16.0992ZM11.5466 14.43L6 14.43L6 16.43L11.5466 16.43V14.43ZM10.5331 27.5944L12.533 15.5944L10.5603 15.2656L8.56027 27.2656L10.5331 27.5944ZM19.61 14.7608L8.80357 26.7608L10.2898 28.0992L21.0962 16.0992L19.61 14.7608ZM14.8064 16.43H20.3531V14.43H14.8064V16.43Z" fill="#FDFDFD"/>
</svg>
