<svg width="24" height="25" viewBox="0 0 24 25" fill="none" xmlns="http://www.w3.org/2000/svg">
    <path d="M14.1363 3.7914L15.1313 3.69189V3.69189L14.1363 3.7914ZM13.9839 2.97164L14.8727 2.5133L14.8727 2.51329L13.9839 2.97164ZM14.4311 5.24766L13.636 5.85409L13.636 5.85409L14.4311 5.24766ZM15.3597 5.63228L15.2263 4.64122H15.2263L15.3597 5.63228ZM16.5979 4.81107L17.2311 5.58502V5.58502L16.5979 4.81107ZM17.2852 4.3392L16.9808 3.38665V3.38665L17.2852 4.3392ZM17.9872 4.37421L17.5896 5.29175L17.5896 5.29175L17.9872 4.37421ZM18.6241 4.91213L17.917 5.61924L17.917 5.61924L18.6241 4.91213ZM19.5177 5.80566L20.2248 5.09856L20.2248 5.09855L19.5177 5.80566ZM20.0557 6.44274L19.1381 6.84033L19.1381 6.84033L20.0557 6.44274ZM20.0907 7.14464L19.1381 6.84032V6.84033L20.0907 7.14464ZM19.6188 7.83209L18.8447 7.19882L18.8379 7.2074L19.6188 7.83209ZM19.6187 7.83211L20.3927 8.46539L20.3996 8.45681L19.6187 7.83211ZM18.7974 9.07054L19.7885 9.20385V9.20385L18.7974 9.07054ZM19.1819 9.99891L18.5754 10.794V10.794L19.1819 9.99891ZM20.6385 10.2938L20.539 11.2889H20.539L20.6385 10.2938ZM21.4584 10.4462L21 11.335L21.4584 10.4462ZM21.9299 10.9673L21 11.335L21 11.335L21.9299 10.9673ZM21.93 13.8926L22.8599 14.2603L22.8599 14.2603L21.93 13.8926ZM21.4583 14.4138L21 13.525V13.525L21.4583 14.4138ZM20.6386 14.5661L20.5391 13.5711L20.5268 13.5723L20.5145 13.5739L20.6386 14.5661ZM20.6385 14.5661L20.738 15.5612L20.7503 15.5599L20.7626 15.5584L20.6385 14.5661ZM19.1824 14.8609L18.576 14.0657L18.576 14.0657L19.1824 14.8609ZM18.7977 15.7896L19.7888 15.6561L19.7888 15.6561L18.7977 15.7896ZM19.6188 17.0276L20.3997 16.4029L20.3928 16.3943L19.6188 17.0276ZM19.6188 17.0276L18.8379 17.6523L18.8449 17.6608L19.6188 17.0276ZM20.0906 17.7148L21.0432 17.4103L21.0432 17.4103L20.0906 17.7148ZM20.0556 18.4169L20.9731 18.8146L20.9731 18.8146L20.0556 18.4169ZM19.5178 19.0537L20.2249 19.7608L20.2249 19.7608L19.5178 19.0537ZM17.9872 20.4853L18.3849 21.4028H18.3849L17.9872 20.4853ZM17.2851 20.5203L17.5895 19.5678H17.5895L17.2851 20.5203ZM16.5979 20.0485L17.2311 19.2745L17.2226 19.2676L16.5979 20.0485ZM16.5978 20.0485L15.9646 20.8225L15.9731 20.8294L16.5978 20.0485ZM15.3598 19.2273L15.2263 20.2184L15.2263 20.2184L15.3598 19.2273ZM14.4311 19.612L15.2263 20.2184L15.2263 20.2184L14.4311 19.612ZM14.1363 21.0684L15.1314 21.1679V21.1679L14.1363 21.0684ZM13.9839 21.8884L13.0952 21.43L13.0952 21.43L13.9839 21.8884ZM13.4629 22.3599L13.8306 23.2899L13.4629 22.3599ZM10.5374 22.3599L10.9051 21.43H10.9051L10.5374 22.3599ZM10.0164 21.8884L10.9051 21.43L10.9051 21.43L10.0164 21.8884ZM9.864 21.0685L8.86897 21.168L9.864 21.0685ZM9.56901 19.6118L10.364 19.0052H10.364L9.56901 19.6118ZM8.64078 19.2273L8.50755 18.2362H8.50754L8.64078 19.2273ZM7.40209 20.0488L6.76885 19.2748H6.76885L7.40209 20.0488ZM6.71444 20.5209L7.01866 21.4735L7.01866 21.4734L6.71444 20.5209ZM6.01271 20.4859L5.61521 21.4035H5.61521L6.01271 20.4859ZM5.37547 19.9477L6.08258 19.2406L6.08257 19.2406L5.37547 19.9477ZM4.48209 19.0543L3.77499 19.7614L3.77499 19.7615L4.48209 19.0543ZM3.94406 18.4172L4.86163 18.0197L4.86163 18.0197L3.94406 18.4172ZM3.90906 17.7154L2.95648 17.4111H2.95648L3.90906 17.7154ZM4.38104 17.0279L3.60708 16.3946H3.60708L4.38104 17.0279ZM5.2024 15.7895L4.21133 15.6561L4.21133 15.6561L5.2024 15.7895ZM4.81783 14.861L5.42433 14.066L5.42433 14.0659L4.81783 14.861ZM3.36141 14.5661L3.46091 13.5711H3.46091L3.36141 14.5661ZM2.54163 14.4138L2.08326 15.3025H2.08326L2.54163 14.4138ZM2.07004 13.8927L1.14008 14.2603L1.14008 14.2603L2.07004 13.8927ZM2.07007 10.9672L1.14014 10.5995L1.14014 10.5995L2.07007 10.9672ZM2.54156 10.4463L2.08311 9.55753L2.08311 9.55753L2.54156 10.4463ZM3.36151 10.2938V9.29384H3.31163L3.262 9.2988L3.36151 10.2938ZM3.36151 10.2938V11.2938H3.41139L3.46102 11.2889L3.36151 10.2938ZM4.81823 9.99885L4.21163 9.20384H4.21163L4.81823 9.99885ZM5.20272 9.07061L6.1938 8.93739V8.93739L5.20272 9.07061ZM4.38115 7.83184L3.60719 8.46508H3.60719L4.38115 7.83184ZM3.90898 7.14404L4.8616 6.83987L4.8616 6.83987L3.90898 7.14404ZM3.94397 6.44243L3.02635 6.04498L3.02635 6.04498L3.94397 6.44243ZM4.48218 5.80508L5.18929 6.51218L5.18929 6.51218L4.48218 5.80508ZM5.37541 4.91185L6.08252 5.61895L6.08252 5.61895L5.37541 4.91185ZM6.0127 4.37368L5.61522 3.45607L5.61522 3.45607L6.0127 4.37368ZM6.71438 4.33868L6.41018 5.29129L6.41018 5.29129L6.71438 4.33868ZM7.40216 4.81085L6.76892 5.58481L6.76892 5.58481L7.40216 4.81085ZM8.64066 5.6323L8.50729 6.62337H8.50729L8.64066 5.6323ZM9.56914 5.24772L8.77404 4.64124V4.64124L9.56914 5.24772ZM9.86402 3.79137L10.8591 3.89088L10.864 3.84125V3.79137H9.86402ZM9.86402 3.79137L8.86898 3.69187L8.86402 3.74149V3.79137H9.86402ZM10.0164 2.97164L9.1276 2.51329L9.1276 2.51329L10.0164 2.97164ZM10.5375 2.50002L10.9051 3.42999L10.9051 3.42999L10.5375 2.50002ZM13.4628 2.50002L13.0952 3.42999L13.0952 3.42999L13.4628 2.50002ZM15.1313 3.69189C15.111 3.48829 15.0914 3.28693 15.0628 3.11682C15.0326 2.93687 14.983 2.7271 14.8727 2.5133L13.0952 3.42999C13.0722 3.38549 13.0771 3.36878 13.0904 3.44798C13.1053 3.537 13.1183 3.66087 13.1413 3.8909L15.1313 3.69189ZM15.2263 4.64123C15.2895 4.72414 15.2694 4.76082 15.2343 4.56578C15.2009 4.3803 15.174 4.11904 15.1313 3.69189L13.1413 3.8909C13.1806 4.28449 13.2153 4.63878 13.2659 4.91996C13.3148 5.19158 13.401 5.54601 13.636 5.85409L15.2263 4.64123ZM15.2263 4.64122L15.2263 4.64122L13.636 5.85409C14.0719 6.42557 14.7808 6.71924 15.4931 6.62334L15.2263 4.64122ZM15.9646 4.03711C15.6324 4.30893 15.4287 4.47466 15.2739 4.58221C15.1112 4.6953 15.1229 4.65514 15.2263 4.64122L15.4931 6.62334C15.8771 6.57164 16.1887 6.38202 16.4153 6.22452C16.6499 6.06148 16.925 5.83549 17.2311 5.58502L15.9646 4.03711ZM16.9808 3.38665C16.7517 3.45987 16.5683 3.57311 16.4197 3.67897C16.2792 3.77906 16.123 3.90755 15.9646 4.03711L17.2311 5.58502C17.41 5.43865 17.5067 5.3602 17.5802 5.30783C17.6456 5.26124 17.6372 5.27651 17.5896 5.29175L16.9808 3.38665ZM18.3849 3.45668C17.9407 3.26419 17.4419 3.23931 16.9808 3.38665L17.5896 5.29175V5.29175L18.3849 3.45668ZM19.3313 4.20502C19.1866 4.06035 19.0439 3.91695 18.9141 3.80339C18.7768 3.68326 18.6056 3.55233 18.3849 3.45668L17.5896 5.29175C17.5436 5.27184 17.5368 5.25581 17.5972 5.30868C17.6652 5.36811 17.7536 5.45579 17.917 5.61924L19.3313 4.20502ZM20.2248 5.09855L19.3313 4.20502L17.917 5.61924L18.8106 6.51277L20.2248 5.09855ZM20.9733 6.04516C20.8776 5.8244 20.7467 5.65315 20.6265 5.5158C20.5129 5.38596 20.3695 5.24325 20.2248 5.09856L18.8106 6.51277C18.9741 6.67625 19.0618 6.76468 19.1212 6.83263C19.1741 6.89307 19.158 6.88628 19.1381 6.84033L20.9733 6.04516ZM21.0433 7.44895C21.1905 6.98796 21.1657 6.48921 20.9733 6.04516L19.1381 6.84033V6.84032L21.0433 7.44895ZM20.3927 8.46533C20.5223 8.30695 20.6508 8.15068 20.7509 8.01018C20.8568 7.86156 20.9701 7.67813 21.0433 7.44895L19.1381 6.84033C19.1534 6.79262 19.1686 6.78427 19.122 6.84967C19.0697 6.9232 18.9912 7.01992 18.8448 7.19885L20.3927 8.46533ZM20.3996 8.45681L20.3996 8.45679L18.8379 7.2074L18.8379 7.20742L20.3996 8.45681ZM19.7885 9.20385C19.7746 9.30721 19.7344 9.31892 19.8475 9.15618C19.9551 9.0014 20.1208 8.79764 20.3927 8.46535L18.8448 7.19888C18.5943 7.50506 18.3682 7.78016 18.2052 8.0148C18.0476 8.24147 17.858 8.55315 17.8063 8.93723L19.7885 9.20385ZM19.7885 9.20385L19.7885 9.20385L17.8063 8.93722C17.7105 9.64936 18.0041 10.3582 18.5754 10.794L19.7885 9.20385ZM20.738 9.29881C20.3108 9.25608 20.0494 9.22921 19.8639 9.19582C19.6689 9.16072 19.7055 9.14059 19.7885 9.20385L18.5754 10.794C18.8835 11.029 19.238 11.1153 19.5097 11.1642C19.7909 11.2148 20.1453 11.2495 20.539 11.2889L20.738 9.29881ZM21.9168 9.55751C21.703 9.44721 21.4932 9.39758 21.3132 9.36736C21.1431 9.33879 20.9416 9.31917 20.738 9.29881L20.539 11.2889C20.7691 11.3119 20.893 11.3248 20.982 11.3397C21.0612 11.353 21.0445 11.3579 21 11.335L21.9168 9.55751ZM22.8599 10.5996C22.6819 10.1496 22.3469 9.77934 21.9168 9.55751L21 11.335L21 11.335L22.8599 10.5996ZM23 11.7983C23 11.5936 23.0005 11.3913 22.989 11.2191C22.9769 11.037 22.9484 10.8233 22.8599 10.5996L21 11.335C20.9816 11.2884 20.9881 11.2723 20.9935 11.3524C20.9995 11.4425 21 11.567 21 11.7983H23ZM23 13.0618V11.7983H21V13.0618H23ZM22.8599 14.2603C22.9484 14.0366 22.9769 13.8229 22.989 13.6409C23.0005 13.4687 23 13.2664 23 13.0618H21C21 13.293 20.9995 13.4175 20.9935 13.5076C20.9881 13.5877 20.9816 13.5716 21 13.525L22.8599 14.2603ZM21.9167 15.3026C22.3469 15.0807 22.682 14.7104 22.8599 14.2603L21 13.525L21 13.525L21.9167 15.3026ZM20.7381 15.5612C20.9417 15.5408 21.143 15.5212 21.3132 15.4926C21.4931 15.4624 21.7029 15.4128 21.9167 15.3026L21 13.525C21.0445 13.5021 21.0612 13.5069 20.982 13.5202C20.893 13.5352 20.7691 13.5481 20.5391 13.5711L20.7381 15.5612ZM20.7626 15.5584L20.7626 15.5584L20.5145 13.5739L20.5145 13.5739L20.7626 15.5584ZM19.7888 15.6561C19.7058 15.7193 19.6692 15.6992 19.8642 15.6641C20.0497 15.6308 20.3109 15.6039 20.738 15.5612L20.539 13.5711C20.1455 13.6105 19.7912 13.6451 19.5101 13.6957C19.2385 13.7446 18.8841 13.8308 18.576 14.0657L19.7888 15.6561ZM19.7888 15.6561V15.6561L18.576 14.0657C18.0044 14.5016 17.7107 15.2107 17.8067 15.9231L19.7888 15.6561ZM20.3928 16.3943C20.121 16.0622 19.9553 15.8585 19.8478 15.7038C19.7347 15.5411 19.7749 15.5528 19.7888 15.6561L17.8067 15.9231C17.8584 16.3071 18.048 16.6186 18.2055 16.8452C18.3685 17.0798 18.5944 17.3547 18.8449 17.6608L20.3928 16.3943ZM20.3997 16.4029L20.3997 16.4029L18.838 17.6523L18.838 17.6523L20.3997 16.4029ZM21.0432 17.4103C20.9699 17.1812 20.8567 16.9979 20.7509 16.8493C20.6508 16.7089 20.5223 16.5527 20.3928 16.3944L18.8449 17.6608C18.9912 17.8397 19.0697 17.9364 19.122 18.0099C19.1686 18.0753 19.1533 18.0669 19.1381 18.0192L21.0432 17.4103ZM20.9731 18.8146C21.1657 18.3704 21.1906 17.8715 21.0432 17.4103L19.1381 18.0192L19.1381 18.0192L20.9731 18.8146ZM20.2249 19.7608C20.3695 19.6162 20.5129 19.4736 20.6265 19.3438C20.7466 19.2065 20.8775 19.0353 20.9731 18.8146L19.1381 18.0192C19.158 17.9733 19.174 17.9665 19.1212 18.0269C19.0618 18.0948 18.9741 18.1832 18.8107 18.3466L20.2249 19.7608ZM20.2249 19.7609L20.2249 19.7608L18.8107 18.3466L18.8107 18.3467L20.2249 19.7609ZM19.3312 20.6545L20.2249 19.7609L18.8107 18.3467L17.917 19.2403L19.3312 20.6545ZM18.3849 21.4028C18.6056 21.3072 18.7768 21.1763 18.9141 21.0562C19.0439 20.9426 19.1865 20.7992 19.3312 20.6545L17.917 19.2403C17.7536 19.4038 17.6651 19.4914 17.5972 19.5509C17.5368 19.6037 17.5436 19.5877 17.5895 19.5678L18.3849 21.4028ZM16.9807 21.4729C17.4418 21.6202 17.9407 21.5954 18.3849 21.4028L17.5895 19.5678L17.5895 19.5678L16.9807 21.4729ZM15.9646 20.8225C16.123 20.952 16.2792 21.0805 16.4196 21.1806C16.5682 21.2864 16.7516 21.3997 16.9807 21.4729L17.5895 19.5678C17.6372 19.583 17.6456 19.5983 17.5802 19.5517C17.5067 19.4993 17.41 19.4209 17.2311 19.2745L15.9646 20.8225ZM15.9731 20.8294L15.9732 20.8294L17.2226 19.2676L17.2225 19.2676L15.9731 20.8294ZM15.2263 20.2184C15.123 20.2045 15.1113 20.1643 15.274 20.2774C15.4287 20.3849 15.6324 20.5506 15.9646 20.8224L17.2311 19.2745C16.925 19.0241 16.65 18.7981 16.4154 18.6351C16.1888 18.4776 15.8772 18.288 15.4932 18.2363L15.2263 20.2184ZM15.2263 20.2184H15.2263L15.4932 18.2363C14.7809 18.1403 14.0719 18.434 13.636 19.0056L15.2263 20.2184ZM15.1314 21.1679C15.1741 20.7407 15.2009 20.4794 15.2343 20.2939C15.2694 20.0988 15.2895 20.1354 15.2263 20.2184L13.636 19.0056C13.401 19.3136 13.3148 19.6681 13.2659 19.9397C13.2153 20.2209 13.1806 20.5752 13.1413 20.9689L15.1314 21.1679ZM14.8726 22.3469C14.9829 22.133 15.0326 21.9232 15.0628 21.7432C15.0914 21.573 15.111 21.3716 15.1314 21.1679L13.1413 20.9689C13.1183 21.199 13.1054 21.3229 13.0904 21.412C13.0771 21.4912 13.0722 21.4745 13.0952 21.43L14.8726 22.3469ZM13.8306 23.2899C14.2806 23.1119 14.6508 22.7769 14.8726 22.3469L13.0952 21.43L13.0952 21.43L13.8306 23.2899ZM12.6319 23.43C12.8365 23.43 13.0389 23.4305 13.211 23.419C13.3932 23.4068 13.6069 23.3783 13.8306 23.2899L13.0952 21.43C13.1417 21.4116 13.1579 21.4181 13.0777 21.4235C12.9877 21.4295 12.8631 21.43 12.6319 21.43V23.43ZM11.3685 23.43H12.6319V21.43H11.3685V23.43ZM10.1697 23.2899C10.3934 23.3783 10.6072 23.4068 10.7893 23.419C10.9614 23.4305 11.1638 23.43 11.3685 23.43V21.43C11.1372 21.43 11.0127 21.4295 10.9226 21.4235C10.8424 21.4181 10.8586 21.4116 10.9051 21.43L10.1697 23.2899ZM9.12769 22.3469C9.34952 22.7769 9.71971 23.1119 10.1697 23.2899L10.9051 21.43H10.9051L9.12769 22.3469ZM8.86897 21.168C8.88933 21.3716 8.90895 21.5731 8.93752 21.7432C8.96775 21.9232 9.01738 22.133 9.1277 22.3469L10.9051 21.43C10.9281 21.4745 10.9232 21.4912 10.9099 21.412C10.895 21.323 10.882 21.1991 10.859 20.969L8.86897 21.168ZM8.774 20.2184C8.71073 20.1354 8.73086 20.0987 8.76597 20.2938C8.79936 20.4794 8.82624 20.7407 8.86897 21.168L10.859 20.969C10.8197 20.5753 10.785 20.2209 10.7343 19.9396C10.6854 19.6679 10.5991 19.3133 10.364 19.0052L8.774 20.2184ZM8.774 20.2184L8.774 20.2184L10.364 19.0052C9.92823 18.434 9.21957 18.1405 8.50755 18.2362L8.774 20.2184ZM8.03532 20.8227C8.36769 20.5508 8.5715 20.385 8.72631 20.2774C8.8891 20.1643 8.87739 20.2045 8.77401 20.2184L8.50754 18.2362C8.1234 18.2878 7.81165 18.4775 7.58494 18.6351C7.35026 18.7982 7.0751 19.0243 6.76885 19.2748L8.03532 20.8227ZM7.01866 21.4734C7.24791 21.4002 7.43139 21.287 7.58005 21.181C7.72059 21.0809 7.8769 20.9524 8.03532 20.8227L6.76885 19.2748C6.58986 19.4213 6.49311 19.4998 6.41956 19.5522C6.35413 19.5988 6.36249 19.5835 6.41021 19.5683L7.01866 21.4734ZM5.61521 21.4035C6.05916 21.5958 6.55778 21.6206 7.01866 21.4735L6.41022 19.5682L6.41021 19.5683L5.61521 21.4035ZM4.66836 20.6548C4.8131 20.7996 4.95584 20.943 5.08571 21.0566C5.2231 21.1768 5.39439 21.3078 5.61521 21.4035L6.41022 19.5683C6.45618 19.5882 6.46297 19.6042 6.40252 19.5513C6.33455 19.4919 6.2461 19.4041 6.08258 19.2406L4.66836 20.6548ZM3.77499 19.7615L4.66836 20.6548L6.08257 19.2406L5.1892 18.3472L3.77499 19.7615ZM3.02649 18.8148C3.12215 19.0356 3.2531 19.2068 3.37325 19.3442C3.48684 19.474 3.63028 19.6167 3.77499 19.7614L5.1892 18.3472C5.02571 18.1838 4.93801 18.0953 4.87857 18.0274C4.82569 17.9669 4.84172 17.9737 4.86163 18.0197L3.02649 18.8148ZM2.95648 17.4111C2.80922 17.872 2.8341 18.3708 3.02649 18.8148L4.86163 18.0197V18.0197L2.95648 17.4111ZM3.60708 16.3946C3.47749 16.553 3.34896 16.7093 3.24885 16.8498C3.14296 16.9984 3.02969 17.1819 2.95648 17.4111L4.86163 18.0197C4.84639 18.0674 4.83112 18.0757 4.87772 18.0103C4.93011 17.9368 5.00858 17.8401 5.155 17.6611L3.60708 16.3946ZM4.21133 15.6561C4.22524 15.5527 4.26541 15.541 4.15229 15.7038C4.04472 15.8586 3.87896 16.0623 3.60708 16.3946L5.155 17.6611C5.40551 17.3549 5.63155 17.0798 5.79461 16.8452C5.95214 16.6185 6.14179 16.3069 6.19347 15.9228L4.21133 15.6561ZM4.21133 15.6561L6.19347 15.9228C6.28929 15.2106 5.99568 14.5018 5.42433 14.066L4.21133 15.6561ZM3.2619 15.5612C3.6891 15.6039 3.95038 15.6308 4.13588 15.6641C4.33093 15.6992 4.29425 15.7194 4.21133 15.6561L5.42433 14.0659C5.11623 13.8309 4.76175 13.7446 4.49009 13.6958C4.20888 13.6452 3.85454 13.6105 3.46091 13.5711L3.2619 15.5612ZM2.08326 15.3025C2.29707 15.4128 2.50685 15.4624 2.68681 15.4926C2.85693 15.5212 3.0583 15.5408 3.26191 15.5612L3.46091 13.5711C3.23087 13.5481 3.10701 13.5352 3.01798 13.5202C2.93879 13.5069 2.95549 13.5021 3 13.525L2.08326 15.3025ZM1.14008 14.2603C1.31802 14.7104 1.65312 15.0807 2.08326 15.3025L3 13.525H3L1.14008 14.2603ZM1 13.0618C1 13.2664 0.999483 13.4687 1.01098 13.6409C1.02314 13.8229 1.05163 14.0366 1.14008 14.2603L3 13.525C3.01841 13.5716 3.01188 13.5877 3.00653 13.5076C3.00052 13.4175 3 13.293 3 13.0618H1ZM1 11.7983V13.0618H3V11.7983H1ZM1.14014 10.5995C1.05165 10.8233 1.02315 11.037 1.01098 11.2191C0.999483 11.3913 1 11.5936 1 11.7983H3C3 11.5671 3.00052 11.4425 3.00654 11.3524C3.01189 11.2723 3.01842 11.2884 3 11.335L1.14014 10.5995ZM2.08311 9.55753C1.65309 9.77936 1.31807 10.1495 1.14014 10.5995L3 11.335L3 11.335L2.08311 9.55753ZM3.262 9.2988C3.05835 9.31917 2.85694 9.33879 2.68678 9.36736C2.50679 9.39759 2.29697 9.44722 2.08311 9.55753L3 11.335C2.95549 11.3579 2.93877 11.353 3.01798 11.3397C3.10703 11.3248 3.23092 11.3119 3.46101 11.2889L3.262 9.2988ZM3.36151 9.29384H3.36151V11.2938H3.36151V9.29384ZM4.21163 9.20384C4.29456 9.14057 4.33126 9.1607 4.13617 9.19581C3.95063 9.2292 3.6893 9.25607 3.26201 9.2988L3.46102 11.2889C3.85473 11.2495 4.20914 11.2148 4.49041 11.1642C4.76213 11.1153 5.11668 11.029 5.42483 10.7939L4.21163 9.20384ZM4.21163 9.20384L5.42483 10.7939C5.99598 10.3581 6.28952 9.64941 6.1938 8.93739L4.21163 9.20384ZM3.60719 8.46508C3.87915 8.79747 4.04497 9.00131 4.15257 9.15614C4.26572 9.31895 4.22553 9.30724 4.21163 9.20384L6.1938 8.93739C6.14216 8.55323 5.95246 8.24147 5.7949 8.01476C5.63179 7.78006 5.4057 7.50489 5.15511 7.19861L3.60719 8.46508ZM2.95636 7.4482C3.02957 7.6775 3.14288 7.86102 3.24881 8.00971C3.34895 8.15027 3.47754 8.30662 3.60719 8.46508L5.15511 7.19861C5.00863 7.01958 4.93012 6.9228 4.8777 6.84923C4.83107 6.78378 4.84636 6.79214 4.8616 6.83987L2.95636 7.4482ZM3.02635 6.04498C2.83409 6.48887 2.80923 6.98739 2.95636 7.44821L4.8616 6.83987H4.8616L3.02635 6.04498ZM3.77508 5.09797C3.63032 5.24273 3.48682 5.38549 3.3732 5.51539C3.253 5.6528 3.12201 5.82412 3.02635 6.04498L4.8616 6.83987C4.84169 6.88585 4.82565 6.89265 4.87854 6.83218C4.93801 6.7642 5.02574 6.67573 5.18929 6.51218L3.77508 5.09797ZM4.66831 4.20474L3.77508 5.09797L5.18929 6.51218L6.08252 5.61895L4.66831 4.20474ZM5.61522 3.45607C5.39439 3.55173 5.22308 3.68271 5.08569 3.8029C4.9558 3.91651 4.81305 4.06 4.66831 4.20474L6.08252 5.61895C6.24605 5.45542 6.33451 5.36769 6.40248 5.30823C6.46295 5.25534 6.45615 5.27138 6.41018 5.29129L5.61522 3.45607ZM7.01858 3.38608C6.55773 3.23891 6.05915 3.26378 5.61522 3.45607L6.41018 5.29129L6.41018 5.29129L7.01858 3.38608ZM8.0354 4.03689C7.87693 3.90724 7.72059 3.77866 7.58004 3.67852C7.43136 3.5726 7.24786 3.45929 7.01858 3.38608L6.41018 5.29129C6.36244 5.27605 6.35408 5.26076 6.41954 5.3074C6.49311 5.35982 6.58989 5.43833 6.76892 5.58481L8.0354 4.03689ZM8.77404 4.64124C8.87742 4.65515 8.88913 4.69533 8.72633 4.58218C8.57152 4.47459 8.36772 4.3088 8.0354 4.03689L6.76892 5.58481C7.07515 5.83536 7.35026 6.0614 7.58491 6.22448C7.81155 6.38201 8.12323 6.57168 8.50729 6.62337L8.77404 4.64124ZM8.77404 4.64124V4.64124L8.50729 6.62337C9.21951 6.71922 9.9284 6.42559 10.3642 5.85419L8.77404 4.64124ZM8.86898 3.69187C8.82626 4.11904 8.79939 4.38031 8.76602 4.56579C8.73092 4.76083 8.71079 4.72416 8.77404 4.64124L10.3642 5.85419C10.5992 5.5461 10.6855 5.19164 10.7344 4.92C10.785 4.6388 10.8197 4.28448 10.8591 3.89088L8.86898 3.69187ZM8.86402 3.79137V3.79137H10.864V3.79137H8.86402ZM9.1276 2.51329C9.01734 2.7271 8.96773 2.93686 8.93752 3.1168C8.90895 3.28692 8.88934 3.48827 8.86898 3.69187L10.8591 3.89087C10.8821 3.66085 10.895 3.53699 10.9099 3.44797C10.9232 3.36878 10.9281 3.38549 10.9051 3.42999L9.1276 2.51329ZM10.1699 1.57006C9.71975 1.748 9.34944 2.08312 9.1276 2.51329L10.9051 3.42999V3.42999L10.1699 1.57006ZM11.3683 1.42999C11.1637 1.42999 10.9614 1.42948 10.7893 1.44097C10.6072 1.45313 10.3936 1.48162 10.1699 1.57006L10.9051 3.42999C10.8586 3.4484 10.8424 3.44187 10.9226 3.43652C11.0126 3.43051 11.1372 3.42999 11.3683 3.42999V1.42999ZM12.632 1.42999H11.3683V3.42999H12.632V1.42999ZM13.8304 1.57005C13.6067 1.48161 13.3931 1.45313 13.211 1.44097C13.0389 1.42948 12.8366 1.42999 12.632 1.42999V3.42999C12.8632 3.42999 12.9877 3.43051 13.0778 3.43652C13.1579 3.44187 13.1417 3.4484 13.0952 3.42999L13.8304 1.57005ZM14.8727 2.51329C14.6509 2.08312 14.2806 1.74799 13.8304 1.57005L13.0952 3.42999L13.0952 3.43L14.8727 2.51329ZM15.0001 12.43C15.0001 14.0868 13.6569 15.43 12.0001 15.43V17.43C14.7615 17.43 17.0001 15.1914 17.0001 12.43H15.0001ZM12.0001 9.42999C13.6569 9.42999 15.0001 10.7731 15.0001 12.43H17.0001C17.0001 9.66857 14.7615 7.42999 12.0001 7.42999V9.42999ZM9.00008 12.43C9.00008 10.7731 10.3432 9.42999 12.0001 9.42999V7.42999C9.23865 7.42999 7.00008 9.66857 7.00008 12.43H9.00008ZM12.0001 15.43C10.3432 15.43 9.00008 14.0868 9.00008 12.43H7.00008C7.00008 15.1914 9.23865 17.43 12.0001 17.43V15.43Z" fill="#FDFDFD"/>
</svg>
