<svg width="24" height="21" viewBox="0 0 24 21" fill="none" xmlns="http://www.w3.org/2000/svg">
    <path fill-rule="evenodd" clip-rule="evenodd" d="M12.2917 0.489055C12.1052 0.410305 11.8948 0.410305 11.7083 0.489055L0.458271 5.23906C0.180526 5.35633 0 5.62851 0 5.92999C0 6.23148 0.180526 6.50366 0.458271 6.62093L4.25 8.22188V12.0255C3.76381 12.1516 3.30237 12.4029 2.9228 12.7824C2.34402 13.3612 2 14.1927 2 15.2111V19.7111C2 19.9604 2.12795 20.1981 2.33509 20.3359C2.39421 20.3751 2.45249 20.4087 2.55517 20.4601C2.67876 20.5219 2.85216 20.5983 3.07529 20.6727C3.52261 20.8218 4.1651 20.9612 5 20.9612C5.83487 20.9612 6.47733 20.8219 6.92463 20.6728C7.14776 20.5984 7.32115 20.522 7.44474 20.4603C7.54157 20.4119 7.59819 20.3786 7.65465 20.3428C7.86613 20.2052 8 19.9643 8 19.7113V15.2113C8 14.1929 7.65599 13.3613 7.07721 12.7825C6.69764 12.4029 6.2362 12.1516 5.75 12.0255V8.85522L11.7083 11.3709C11.8948 11.4497 12.1052 11.4497 12.2917 11.3709L17.5 9.17187V13.1741C17.4774 13.1996 17.4512 13.228 17.4213 13.2587C17.2597 13.4249 16.9876 13.6638 16.572 13.9091C15.7458 14.3967 14.3174 14.93 12 14.93C11.388 14.93 10.8384 14.8928 10.346 14.8292C9.93522 14.7762 9.55922 15.0662 9.50619 15.477C9.45317 15.8878 9.74321 16.2639 10.154 16.3169C10.7132 16.3891 11.3271 16.43 12 16.43C14.5576 16.43 16.2543 15.8383 17.3343 15.2009C17.8718 14.8837 18.2481 14.5601 18.4968 14.3044C18.6402 14.1568 18.7814 13.9983 18.8894 13.8221L18.89 13.8211C18.9619 13.7033 19 13.568 19 13.43V8.53854L23.5417 6.62093C23.8195 6.50366 24 6.23148 24 5.92999C24 5.62851 23.8195 5.35633 23.5417 5.23906L12.2917 0.489055ZM4.99993 13.43C4.99992 13.43 4.99995 13.43 4.99993 13.43C4.62297 13.43 4.25546 13.5711 3.98345 13.8431C3.71848 14.1081 3.5 14.5421 3.5 15.2111V19.2326C3.7989 19.3379 4.29726 19.4612 5 19.4612C5.70271 19.4612 6.20108 19.338 6.5 19.2327V15.2113C6.5 14.5422 6.28151 14.1081 6.01654 13.8432C5.74451 13.5711 5.37691 13.43 4.99993 13.43ZM12 9.86588L2.67816 5.92999L12 1.9941L21.3218 5.92999L12 9.86588Z" fill="#FDFDFD"/>
</svg>
